<?xml version="1.0" encoding="UTF-8" standalone="no"?>
<!DOCTYPE svg PUBLIC "-//W3C//DTD SVG 1.1//EN" "http://www.w3.org/Graphics/SVG/1.1/DTD/svg11.dtd">
<svg xmlns="http://www.w3.org/2000/svg" version="1.1" viewBox="0.00 0.00 512.00 512.00">
<g stroke-width="2.00" fill="none" stroke-linecap="butt">
<path stroke="#e0aada" vector-effect="non-scaling-stroke" d="
  M 502.12 151.22
  L 501.92 149.27
  A 1.49 1.48 -2.6 0 0 500.45 147.93
  L 476.48 147.62"
/>
<path stroke="#e0aada" vector-effect="non-scaling-stroke" d="
  M 36.73 147.63
  L 11.22 147.94"
/>
<path stroke="#c990e4" vector-effect="non-scaling-stroke" d="
  M 501.99 208.24
  L 477.58 208.17
  Q 477.13 208.17 477.13 207.72
  L 477.13 206.24
  A 0.65 0.64 3.0 0 0 476.55 205.60
  Q 475.29 205.46 475.29 206.54"
/>
<path stroke="#c990e4" vector-effect="non-scaling-stroke" d="
  M 36.74 206.54
  Q 36.46 207.18 36.12 207.17
  Q 23.74 206.93 11.21 207.38"
/>
<path stroke="#b87deb" vector-effect="non-scaling-stroke" d="
  M 501.99 287.97
  Q 500.76 288.31 501.16 285.90
  A 0.88 0.87 -85.3 0 0 500.30 284.88
  L 477.49 284.87
  Q 476.90 284.87 476.90 284.28
  Q 476.90 283.25 476.47 282.94"
/>
<path stroke="#b87deb" vector-effect="non-scaling-stroke" d="
  M 36.74 287.98
  Q 36.06 287.63 36.31 286.50
  Q 36.65 284.99 35.10 284.93
  Q 22.64 284.47 11.22 285.44"
/>
<path stroke="#a86bf2" vector-effect="non-scaling-stroke" d="
  M 323.94 320.03
  L 287.35 320.00"
/>
<path stroke="#a86bf2" vector-effect="non-scaling-stroke" d="
  M 501.99 320.04
  Q 501.21 320.28 501.38 318.99
  Q 501.39 318.89 501.31 318.96
  Q 501.21 319.04 501.05 319.02
  Q 500.88 318.99 500.88 318.83
  L 500.88 317.02
  Q 500.88 316.89 500.79 316.97
  Q 500.63 317.12 500.50 317.12
  Q 490.52 317.12 480.53 317.12
  Q 480.12 317.12 480.12 317.53
  L 480.12 318.50
  Q 480.12 319.12 479.50 319.12
  L 478.15 319.12
  Q 477.68 319.12 477.60 318.66
  Q 477.30 316.84 477.32 315.00
  Q 477.32 314.72 477.14 314.51
  Q 476.84 314.18 476.88 314.63
  Q 476.93 315.32 476.49 315.29"
/>
<path stroke="#a86bf2" vector-effect="non-scaling-stroke" d="
  M 36.73 320.06
  Q 36.16 319.14 36.40 317.71
  Q 36.49 317.12 35.90 317.12
  L 12.29 317.13
  A 0.80 0.80 0.0 0 1 11.49 316.41
  L 11.23 313.54"
/>
</g>
<path fill="#efbad3" d="
  M 125.63 0.00
  L 130.50 0.00
  C 154.56 2.20 172.90 20.05 173.60 44.26
  Q 173.74 49.07 173.82 54.04
  Q 173.82 54.49 174.27 54.49
  L 339.01 54.49
  A 0.53 0.53 0.0 0 0 339.54 53.94
  C 339.30 47.77 339.35 41.21 340.71 35.42
  C 345.41 15.44 362.38 1.54 382.89 0.00
  L 388.00 0.00
  C 412.32 2.37 430.41 20.60 430.91 45.00
  Q 431.01 49.62 431.03 54.09
  A 0.37 0.37 0.0 0 0 431.40 54.46
  Q 439.37 54.49 447.24 54.72
  C 478.16 55.62 501.63 79.57 501.94 110.75
  Q 502.14 130.97 502.12 151.22
  L 501.92 149.27
  A 1.49 1.48 -2.6 0 0 500.45 147.93
  L 476.48 147.62
  Q 476.43 129.51 476.46 112.25
  C 476.50 94.37 463.89 80.33 445.99 80.08
  Q 438.45 79.98 430.73 80.03
  Q 430.20 80.03 430.11 80.55
  C 424.48 110.69 392.43 127.10 364.68 113.37
  Q 345.08 103.67 339.95 80.41
  Q 339.86 80.02 339.46 80.02
  L 173.52 80.02
  Q 173.20 80.02 173.13 80.34
  C 169.65 97.91 157.83 111.48 140.81 116.51
  C 114.82 124.19 87.82 107.17 83.07 80.59
  Q 82.98 80.09 82.47 80.08
  Q 70.17 79.84 65.87 80.08
  C 53.10 80.79 41.91 89.32 38.22 101.30
  Q 36.71 106.19 36.74 119.36
  Q 36.77 133.04 36.73 147.63
  L 11.22 147.94
  Q 11.20 130.82 10.98 113.00
  Q 10.66 87.65 27.57 71.07
  Q 43.90 55.05 67.00 54.69
  Q 74.33 54.58 81.67 54.42
  Q 82.17 54.41 82.16 53.91
  C 81.94 42.85 82.50 33.08 87.66 23.98
  Q 99.94 2.30 125.63 0.00
  Z
  M 405.12 73.36
  Q 405.51 61.55 405.46 49.71
  C 405.43 41.59 404.48 35.35 398.59 30.40
  C 387.03 20.66 369.17 25.80 365.60 40.76
  Q 365.05 43.10 365.02 55.30
  C 365.01 62.79 363.95 73.18 366.42 79.70
  C 371.21 92.31 387.08 96.72 397.74 88.30
  Q 404.82 82.70 405.12 73.36
  Z
  M 147.32 39.65
  C 141.62 21.09 114.59 21.03 108.89 39.57
  C 106.83 46.26 107.83 57.51 107.79 65.73
  Q 107.75 75.64 109.18 79.62
  C 116.69 100.47 147.91 94.88 148.12 72.25
  Q 148.23 60.85 148.23 49.45
  Q 148.23 42.60 147.32 39.65
  Z"
/>
<path fill="#d199e0" d="
  M 36.73 147.63
  L 36.74 180.60
  Q 36.74 180.87 37.02 180.87
  L 476.01 180.87
  A 0.46 0.46 0.0 0 0 476.47 180.41
  L 476.48 147.62
  L 500.45 147.93
  A 1.49 1.48 -2.6 0 1 501.92 149.27
  L 502.12 151.22
  Q 502.15 168.60 502.11 186.01
  Q 502.11 186.15 502.60 191.94
  C 502.86 194.92 501.97 197.66 501.99 200.33
  Q 502.03 204.34 501.99 208.24
  L 477.58 208.17
  Q 477.13 208.17 477.13 207.72
  L 477.13 206.24
  A 0.65 0.64 3.0 0 0 476.55 205.60
  Q 475.29 205.46 475.29 206.54
  L 36.74 206.54
  Q 36.46 207.18 36.12 207.17
  Q 23.74 206.93 11.21 207.38
  L 11.22 147.94
  L 36.73 147.63
  Z"
/>
<path fill="#c086e7" d="
  M 501.99 208.24
  L 501.99 287.97
  Q 500.76 288.31 501.16 285.90
  A 0.88 0.87 -85.3 0 0 500.30 284.88
  L 477.49 284.87
  Q 476.90 284.87 476.90 284.28
  Q 476.90 283.25 476.47 282.94
  Q 476.43 245.24 476.52 207.50
  Q 476.53 206.31 475.29 206.54
  Q 475.29 205.46 476.55 205.60
  A 0.65 0.64 3.0 0 1 477.13 206.24
  L 477.13 207.72
  Q 477.13 208.17 477.58 208.17
  L 501.99 208.24
  Z"
/>
<path fill="#c086e7" d="
  M 36.74 206.54
  L 36.74 287.98
  Q 36.06 287.63 36.31 286.50
  Q 36.65 284.99 35.10 284.93
  Q 22.64 284.47 11.22 285.44
  L 11.21 207.38
  Q 23.74 206.93 36.12 207.17
  Q 36.46 207.18 36.74 206.54
  Z"
/>
<path fill="#af73ee" d="
  M 476.47 282.94
  Q 476.90 283.25 476.90 284.28
  Q 476.90 284.87 477.49 284.87
  L 500.30 284.88
  A 0.88 0.87 -85.3 0 1 501.16 285.90
  Q 500.76 288.31 501.99 287.97
  L 501.99 320.04
  Q 501.21 320.28 501.38 318.99
  Q 501.39 318.89 501.31 318.96
  Q 501.21 319.04 501.05 319.02
  Q 500.88 318.99 500.88 318.83
  L 500.88 317.02
  Q 500.88 316.89 500.79 316.97
  Q 500.63 317.12 500.50 317.12
  Q 490.52 317.12 480.53 317.12
  Q 480.12 317.12 480.12 317.53
  L 480.12 318.50
  Q 480.12 319.12 479.50 319.12
  L 478.15 319.12
  Q 477.68 319.12 477.60 318.66
  Q 477.30 316.84 477.32 315.00
  Q 477.32 314.72 477.14 314.51
  Q 476.84 314.18 476.88 314.63
  Q 476.93 315.32 476.49 315.29
  L 476.47 282.94
  Z"
/>
<path fill="#af73ee" d="
  M 323.94 320.03
  L 287.35 320.00
  Q 302.44 305.18 317.44 290.64
  Q 322.24 285.99 324.55 284.97
  C 334.82 280.42 345.97 292.71 340.70 302.63
  Q 339.61 304.68 335.52 308.70
  Q 329.77 314.35 323.94 320.03
  Z"
/>
<path fill="#af73ee" d="
  M 36.74 287.98
  L 36.73 320.06
  Q 36.16 319.14 36.40 317.71
  Q 36.49 317.12 35.90 317.12
  L 12.29 317.13
  A 0.80 0.80 0.0 0 1 11.49 316.41
  L 11.23 313.54
  L 11.22 285.44
  Q 22.64 284.47 35.10 284.93
  Q 36.65 284.99 36.31 286.50
  Q 36.06 287.63 36.74 287.98
  Z"
/>
<path fill="#a163f5" d="
  M 11.23 313.54
  L 11.49 316.41
  A 0.80 0.80 0.0 0 0 12.29 317.13
  L 35.90 317.12
  Q 36.49 317.12 36.40 317.71
  Q 36.16 319.14 36.73 320.06
  Q 36.79 382.91 36.73 445.79
  Q 36.72 460.30 38.15 465.07
  C 41.12 474.99 49.81 483.11 60.03 485.64
  Q 63.57 486.52 70.55 486.52
  Q 259.28 486.54 448.00 486.52
  Q 451.56 486.52 456.21 484.73
  C 469.23 479.72 476.46 468.40 476.43 454.25
  Q 476.26 384.77 476.49 315.29
  Q 476.93 315.32 476.88 314.63
  Q 476.84 314.18 477.14 314.51
  Q 477.32 314.72 477.32 315.00
  Q 477.30 316.84 477.60 318.66
  Q 477.68 319.12 478.15 319.12
  L 479.50 319.12
  Q 480.12 319.12 480.12 318.50
  L 480.12 317.53
  Q 480.12 317.12 480.53 317.12
  Q 490.52 317.12 500.50 317.12
  Q 500.63 317.12 500.79 316.97
  Q 500.88 316.89 500.88 317.02
  L 500.88 318.83
  Q 500.88 318.99 501.05 319.02
  Q 501.21 319.04 501.31 318.96
  Q 501.39 318.89 501.38 318.99
  Q 501.21 320.28 501.99 320.04
  Q 502.02 387.01 501.98 454.00
  C 501.95 485.18 480.45 509.08 449.12 512.00
  L 65.00 512.00
  C 33.79 509.97 10.88 485.24 10.97 454.00
  Q 11.18 383.77 11.23 313.54
  Z"
/>
<path fill="#a163f5" d="
  M 287.35 320.00
  L 323.94 320.03
  Q 286.60 356.50 249.18 393.04
  Q 243.22 398.86 240.10 399.94
  C 233.86 402.10 229.47 399.12 224.79 394.54
  Q 202.10 372.33 179.38 350.14
  Q 173.86 344.75 172.69 341.99
  C 169.70 334.93 174.40 326.76 182.00 324.82
  Q 188.61 323.12 194.15 328.60
  Q 214.93 349.11 235.85 369.48
  Q 236.23 369.84 236.61 369.48
  L 287.35 320.00
  Z"
/>
</svg>
