<?xml version="1.0" encoding="UTF-8" standalone="no"?>
<!DOCTYPE svg PUBLIC "-//W3C//DTD SVG 1.1//EN" "http://www.w3.org/Graphics/SVG/1.1/DTD/svg11.dtd">
<svg xmlns="http://www.w3.org/2000/svg" version="1.1" viewBox="0.00 0.00 923.00 270.00">
<path fill="#fbfbee" d="
  M 429.50 77.74
  C 438.99 77.83 452.42 75.16 452.41 89.25
  Q 452.40 131.12 452.44 173.00
  Q 452.44 181.37 446.15 183.78
  Q 443.63 184.74 435.21 184.75
  Q 387.21 184.79 373.25 184.73
  Q 366.29 184.70 363.44 179.50
  Q 362.08 177.04 362.09 172.01
  Q 362.15 129.62 362.11 87.25
  C 362.11 81.23 368.33 77.73 373.75 77.77
  Q 379.47 77.80 385.21 77.72
  Q 385.73 77.71 385.77 77.19
  C 385.96 74.47 384.41 70.38 388.62 70.38
  Q 407.44 70.36 426.25 70.36
  C 430.13 70.36 428.71 74.74 428.91 77.19
  Q 428.96 77.73 429.50 77.74
  Z
  M 424.11 75.48
  A 0.50 0.50 0.0 0 0 423.61 74.98
  L 391.01 74.98
  A 0.50 0.50 0.0 0 0 390.51 75.48
  L 390.51 85.76
  A 0.50 0.50 0.0 0 0 391.01 86.26
  L 423.61 86.26
  A 0.50 0.50 0.0 0 0 424.11 85.76
  L 424.11 75.48
  Z
  M 388.37 90.84
  C 384.61 90.79 385.69 85.46 385.82 83.06
  A 0.53 0.52 2.1 0 0 385.30 82.51
  Q 378.89 82.47 372.50 82.53
  C 368.27 82.57 366.51 86.10 366.51 90.10
  Q 366.49 132.05 366.50 174.00
  C 366.51 178.84 370.72 180.10 375.05 180.10
  Q 407.78 180.16 440.50 180.10
  Q 444.52 180.09 446.58 177.75
  Q 447.91 176.23 447.91 172.90
  Q 447.85 132.15 447.87 91.41
  C 447.88 86.52 447.02 82.66 441.51 82.51
  Q 439.00 82.44 429.50 82.53
  Q 428.98 82.53 428.96 83.05
  C 428.83 86.26 430.20 91.01 425.51 91.02
  Q 406.93 91.07 388.37 90.84
  Z"
/>
<rect fill="#ff2300" x="276.73" y="90.44" width="11.98" height="69.60" rx="0.62"/>
<path fill="#f1f3f5" d="
  M 544.14 123.23
  Q 544.14 121.13 543.11 122.96
  Q 533.16 140.52 523.09 158.06
  C 521.10 161.52 515.32 161.96 513.20 158.33
  Q 502.69 140.30 492.39 122.33
  Q 491.74 121.19 491.74 122.50
  L 491.75 159.50
  Q 491.75 160.25 491.00 160.25
  L 480.74 160.25
  A 0.73 0.72 -90.0 0 1 480.02 159.52
  Q 480.01 130.65 480.03 102.02
  C 480.04 97.17 481.16 93.73 486.74 94.35
  Q 489.42 94.65 490.78 97.00
  Q 504.22 120.06 517.63 143.31
  A 0.33 0.33 0.0 0 0 518.20 143.31
  Q 531.36 120.50 544.69 97.65
  C 548.25 91.56 555.94 93.66 555.96 101.04
  Q 556.03 130.44 556.01 159.69
  A 0.55 0.55 0.0 0 1 555.46 160.24
  L 545.03 160.22
  Q 544.09 160.22 544.09 159.28
  L 544.14 123.23
  Z"
/>
<path fill="#ff2300" d="
  M 95.77 106.13
  L 95.81 95.28
  A 0.51 0.51 0.0 0 1 96.32 94.77
  L 159.40 94.78
  A 0.51 0.51 0.0 0 1 159.91 95.29
  L 160.00 106.17
  A 0.51 0.51 0.0 0 1 159.48 106.69
  L 134.27 106.62
  A 0.51 0.51 0.0 0 0 133.76 107.13
  L 133.76 159.67
  A 0.51 0.51 0.0 0 1 133.25 160.18
  L 122.30 160.08
  A 0.51 0.51 0.0 0 1 121.79 159.57
  L 121.81 107.11
  A 0.51 0.51 0.0 0 0 121.30 106.60
  L 96.28 106.64
  A 0.51 0.51 0.0 0 1 95.77 106.13
  Z"
/>
<path fill="#f1f3f5" d="
  M 696.00 122.72
  L 681.85 122.77
  A 0.59 0.59 0.0 0 1 681.26 122.18
  L 681.25 111.39
  A 0.59 0.59 0.0 0 1 681.84 110.80
  L 695.94 110.79
  A 0.59 0.59 0.0 0 0 696.53 110.20
  L 696.61 95.45
  A 0.59 0.59 0.0 0 1 697.20 94.86
  L 707.92 94.85
  A 0.59 0.59 0.0 0 1 708.51 95.44
  L 708.52 110.27
  A 0.59 0.59 0.0 0 0 709.11 110.86
  L 728.78 110.72
  A 0.59 0.59 0.0 0 1 729.37 111.31
  L 729.37 122.19
  A 0.59 0.59 0.0 0 1 728.78 122.78
  L 709.10 122.70
  A 0.59 0.59 0.0 0 0 708.51 123.29
  L 708.50 159.65
  A 0.59 0.59 0.0 0 1 707.91 160.24
  L 697.21 160.21
  A 0.59 0.59 0.0 0 1 696.62 159.62
  L 696.59 123.31
  A 0.59 0.59 0.0 0 0 696.00 122.72
  Z"
/>
<path fill="#fbfbee" d="
  M 439.9532 117.3326
  A 2.41 2.41 0.0 0 1 437.5474 119.7468
  L 422.4674 119.7731
  A 2.41 2.41 0.0 0 1 420.0532 117.3674
  L 420.0268 102.2474
  A 2.41 2.41 0.0 0 1 422.4326 99.8332
  L 437.5126 99.8069
  A 2.41 2.41 0.0 0 1 439.9268 102.2126
  L 439.9532 117.3326
  Z
  M 435.4481 105.0391
  A 0.44 0.44 0.0 0 0 435.0089 104.5984
  L 425.4489 104.5817
  A 0.44 0.44 0.0 0 0 425.0081 105.0209
  L 424.9919 114.3009
  A 0.44 0.44 0.0 0 0 425.4311 114.7416
  L 434.9911 114.7583
  A 0.44 0.44 0.0 0 0 435.4319 114.3191
  L 435.4481 105.0391
  Z"
/>
<rect fill="#fbfbee" x="-19.87" y="-2.38" transform="translate(394.37,105.50) rotate(-0.1)" width="39.74" height="4.76" rx="2.33"/>
<path fill="#ff2300" d="
  M 307.37 132.68
  A 0.76 0.76 0.0 0 0 307.31 133.82
  L 333.84 159.37
  Q 334.63 160.13 333.54 160.12
  L 318.61 160.04
  A 2.97 2.96 66.9 0 1 316.59 159.22
  Q 306.10 149.19 295.48 139.10
  C 290.93 134.79 290.30 131.19 295.35 127.14
  Q 305.37 119.12 315.34 111.05
  Q 315.71 110.75 316.20 110.75
  L 333.51 110.71
  Q 334.89 110.70 333.81 111.56
  L 307.37 132.68
  Z"
/>
<path fill="#ff2300" d="
  M 199.26 126.75
  C 199.24 124.38 197.37 122.39 194.75 122.39
  Q 182.38 122.39 169.47 122.52
  A 1.43 1.43 0.0 0 1 168.03 121.06
  L 168.21 111.57
  A 0.81 0.81 0.0 0 1 169.02 110.77
  Q 181.65 110.74 194.50 110.74
  Q 199.36 110.73 204.88 114.62
  C 212.35 119.89 210.53 132.42 210.51 140.50
  Q 210.50 147.59 209.10 150.81
  C 207.02 155.59 202.03 159.76 196.50 159.85
  Q 183.87 160.03 171.25 160.05
  C 163.98 160.06 157.53 153.23 156.67 146.37
  C 155.78 139.26 159.17 131.75 166.04 128.94
  Q 169.52 127.51 179.64 127.50
  Q 186.47 127.50 193.40 127.52
  Q 194.37 127.52 194.37 128.50
  L 194.35 138.22
  A 0.51 0.50 -88.9 0 1 193.84 138.72
  Q 183.93 138.59 173.86 138.70
  C 170.48 138.73 167.77 140.19 167.75 143.75
  Q 167.72 148.92 173.26 148.94
  Q 183.25 148.98 193.26 149.01
  Q 199.41 149.03 199.37 142.75
  Q 199.33 134.75 199.26 126.75
  Z"
/>
<path fill="#ff2300" d="
  M 230.78 124.95
  L 230.78 125.32
  A 1.59 1.59 0.0 0 0 232.34 126.88
  C 240.44 127.05 248.61 126.39 256.24 127.68
  C 271.51 130.25 272.34 154.28 258.12 159.09
  Q 255.37 160.01 249.28 160.02
  Q 234.66 160.03 220.28 160.02
  A 0.80 0.80 0.0 0 1 219.48 159.21
  L 219.60 148.87
  A 0.41 0.40 0.0 0 1 220.01 148.47
  L 251.51 148.47
  Q 256.28 148.47 256.35 143.71
  L 256.37 142.59
  A 3.79 3.79 0.0 0 0 252.61 138.75
  Q 244.46 138.67 237.48 138.68
  Q 229.49 138.69 226.42 137.26
  C 216.07 132.41 216.93 116.80 226.99 112.29
  Q 230.33 110.79 237.90 110.76
  Q 249.94 110.71 261.75 110.76
  A 0.75 0.75 0.0 0 1 262.50 111.51
  L 262.46 121.90
  Q 262.46 122.77 261.60 122.77
  L 232.93 122.75
  A 2.15 2.15 0.0 0 0 230.78 124.95
  Z"
/>
<path fill="#f1f3f5" d="
  M 581.04 138.74
  C 575.31 138.82 574.42 148.54 581.13 148.71
  Q 596.85 149.13 603.00 148.87
  C 607.23 148.69 607.84 145.79 607.86 142.02
  Q 607.89 136.34 607.88 130.66
  C 607.87 126.27 608.30 122.32 603.01 122.35
  Q 590.19 122.43 577.40 122.35
  Q 576.79 122.35 576.79 121.74
  L 576.82 111.30
  A 0.55 0.54 -0.0 0 1 577.37 110.76
  Q 589.57 110.75 602.00 110.78
  C 611.53 110.80 618.89 117.33 619.17 127.01
  Q 619.50 138.58 619.16 145.24
  C 618.74 153.43 612.00 159.77 603.75 159.94
  Q 585.76 160.32 580.00 160.18
  Q 577.63 160.11 574.61 158.63
  C 565.52 154.13 562.74 144.36 567.37 135.67
  Q 571.48 127.97 582.00 127.76
  Q 592.04 127.55 602.27 127.52
  A 0.48 0.48 0.0 0 1 602.75 127.99
  L 602.85 138.02
  A 0.73 0.73 0.0 0 1 602.11 138.75
  Q 591.63 138.61 581.04 138.74
  Z"
/>
<path fill="#f1f3f5" d="
  M 639.49 125.38
  A 1.69 1.69 0.0 0 0 641.19 127.05
  Q 650.66 127.02 659.50 127.19
  C 668.19 127.35 673.72 130.25 676.25 138.87
  C 678.60 146.85 675.18 155.46 667.34 158.71
  Q 663.84 160.16 656.45 160.18
  Q 642.65 160.22 629.00 160.20
  A 0.74 0.73 0.4 0 1 628.27 159.47
  L 628.24 149.24
  A 0.77 0.77 0.0 0 1 629.01 148.47
  L 660.02 148.50
  Q 664.91 148.51 664.98 143.62
  L 664.99 142.55
  A 3.81 3.81 0.0 0 0 661.21 138.69
  Q 649.89 138.62 640.50 138.60
  C 625.43 138.57 623.09 116.05 637.36 111.61
  Q 640.24 110.72 644.75 110.73
  Q 657.55 110.77 670.46 110.77
  A 0.77 0.77 0.0 0 1 671.23 111.53
  L 671.26 122.24
  Q 671.26 122.75 670.76 122.75
  L 641.61 122.73
  Q 639.45 122.73 639.48 124.89
  L 639.49 125.38
  Z"
/>
<path fill="#f1f3f5" d="
  M 778.55 127.50
  L 778.57 126.23
  A 3.72 3.72 0.0 0 0 774.89 122.45
  Q 757.79 122.26 751.99 122.38
  C 747.77 122.47 747.26 125.54 747.26 129.21
  Q 747.26 136.73 747.24 144.27
  Q 747.22 148.82 752.26 148.91
  Q 762.66 149.10 772.89 148.86
  A 0.66 0.66 0.0 0 1 773.56 149.53
  L 773.50 159.75
  A 0.44 0.44 0.0 0 1 773.06 160.19
  Q 763.99 160.19 754.87 160.17
  Q 748.73 160.16 745.61 158.77
  C 734.54 153.84 735.88 143.56 735.89 133.24
  C 735.91 123.97 736.51 116.09 745.38 112.40
  Q 749.13 110.84 758.82 110.74
  C 767.18 110.66 778.08 109.26 784.70 115.18
  C 793.95 123.45 790.18 140.38 777.99 143.09
  Q 776.39 143.45 766.50 143.47
  Q 759.59 143.49 752.69 143.42
  Q 752.26 143.42 752.26 142.98
  L 752.31 132.94
  A 0.62 0.62 0.0 0 1 752.93 132.32
  L 773.58 132.38
  Q 778.48 132.39 778.55 127.50
  Z"
/>
<path fill="#f1f3f5" d="
  M 814.00 122.86
  C 810.69 122.89 809.50 125.17 809.51 128.18
  Q 809.53 143.89 809.50 159.71
  A 0.54 0.54 0.0 0 1 808.96 160.24
  L 798.50 160.21
  A 0.80 0.79 89.6 0 1 797.71 159.42
  Q 797.59 144.85 797.48 129.99
  Q 797.39 116.72 807.22 112.57
  Q 811.43 110.79 823.03 110.75
  Q 831.77 110.71 840.42 110.80
  A 0.70 0.70 0.0 0 1 841.12 111.50
  L 841.13 122.22
  A 0.53 0.52 -90.0 0 1 840.61 122.75
  Q 827.41 122.74 814.00 122.86
  Z"
/>
<rect fill="#fbfbee" x="-14.20" y="-2.40" transform="translate(400.01,114.12) rotate(-0.1)" width="28.40" height="4.80" rx="2.14"/>
<path fill="#fbfbee" d="
  M 439.9146 143.2947
  A 2.72 2.72 0.0 0 1 437.1852 146.0052
  L 422.7252 145.9547
  A 2.72 2.72 0.0 0 1 420.0148 143.2252
  L 420.0654 128.7253
  A 2.72 2.72 0.0 0 1 422.7948 126.0148
  L 437.2548 126.0653
  A 2.72 2.72 0.0 0 1 439.9652 128.7948
  L 439.9146 143.2947
  Z
  M 435.4234 130.9418
  A 0.46 0.46 0.0 0 0 434.9618 130.4835
  L 425.4618 130.5166
  A 0.46 0.46 0.0 0 0 425.0035 130.9782
  L 425.0366 140.4782
  A 0.46 0.46 0.0 0 0 425.4982 140.9365
  L 434.9982 140.9034
  A 0.46 0.46 0.0 0 0 435.4565 140.4418
  L 435.4234 130.9418
  Z"
/>
<rect fill="#fbfbee" x="-19.83" y="-2.40" transform="translate(394.34,131.65) rotate(0.1)" width="39.66" height="4.80" rx="2.36"/>
<rect fill="#fbfbee" x="385.79" y="137.75" width="28.40" height="4.78" rx="2.33"/>
<rect fill="#fbfbee" x="374.51" y="152.24" width="39.68" height="4.74" rx="2.29"/>
<path fill="#fbfbee" d="
  M 439.94 169.58
  A 2.59 2.59 0.0 0 1 437.35 172.17
  L 422.63 172.17
  A 2.59 2.59 0.0 0 1 420.04 169.58
  L 420.04 154.86
  A 2.59 2.59 0.0 0 1 422.63 152.27
  L 437.35 152.27
  A 2.59 2.59 0.0 0 1 439.94 154.86
  L 439.94 169.58
  Z
  M 435.40 157.34
  A 0.50 0.50 0.0 0 0 434.90 156.84
  L 425.54 156.84
  A 0.50 0.50 0.0 0 0 425.04 157.34
  L 425.04 166.70
  A 0.50 0.50 0.0 0 0 425.54 167.20
  L 434.90 167.20
  A 0.50 0.50 0.0 0 0 435.40 166.70
  L 435.40 157.34
  Z"
/>
<rect fill="#fbfbee" x="385.80" y="160.78" width="28.42" height="4.68" rx="2.26"/>
<rect fill="#f1f3f5" x="423.77" y="201.14" width="3.52" height="32.36" rx="0.54"/>
<path fill="#f1f3f5" d="
  M 503.28 212.59
  C 505.22 211.35 511.27 209.49 511.85 213.38
  Q 512.56 218.13 508.89 220.90
  A 0.59 0.59 0.0 0 0 508.86 221.82
  Q 514.05 226.32 512.56 233.25
  Q 512.51 233.48 512.28 233.48
  L 508.99 233.51
  Q 508.66 233.51 508.69 233.19
  Q 509.46 225.10 506.16 223.58
  Q 504.65 222.89 503.01 224.30
  Q 502.70 224.57 502.70 224.99
  L 502.76 232.74
  A 0.75 0.75 0.0 0 1 502.01 233.49
  L 499.80 233.51
  A 0.71 0.71 0.0 0 1 499.09 232.80
  L 499.11 202.00
  A 0.71 0.71 0.0 0 1 499.75 201.29
  L 502.00 201.09
  A 0.66 0.65 -2.4 0 1 502.72 201.75
  L 502.69 212.27
  A 0.39 0.38 -16.2 0 0 503.28 212.59
  Z
  M 503.41 214.95
  A 1.00 1.00 0.0 0 0 502.67 215.92
  L 502.72 220.61
  A 1.00 1.00 0.0 0 0 504.39 221.35
  L 507.61 218.51
  A 1.00 1.00 0.0 0 0 507.95 217.78
  L 507.98 215.03
  A 1.00 1.00 0.0 0 0 506.72 214.05
  L 503.41 214.95
  Z"
/>
<path fill="#f1f3f5" d="
  M 322.69 215.97
  L 326.08 203.44
  Q 326.40 202.26 327.62 202.35
  L 329.01 202.46
  Q 330.03 202.54 329.71 203.50
  L 324.54 219.04
  Q 323.99 220.71 324.00 222.47
  L 324.07 232.55
  A 0.91 0.90 -1.6 0 1 323.20 233.46
  L 321.51 233.53
  A 0.97 0.96 88.6 0 1 320.50 232.56
  C 320.49 228.68 321.13 222.87 319.86 219.07
  Q 317.13 210.93 314.45 203.49
  Q 314.05 202.39 315.22 202.39
  L 317.10 202.40
  Q 318.36 202.40 318.70 203.61
  L 322.21 215.98
  Q 322.46 216.86 322.69 215.97
  Z"
/>
<path fill="#f1f3f5" d="
  M 382.62 203.03
  A 0.70 0.70 0.0 0 1 383.32 202.33
  L 388.97 202.34
  A 11.16 7.79 -89.9 0 1 396.74 213.51
  L 396.72 222.39
  A 11.16 7.79 -89.9 0 1 388.91 233.54
  L 383.26 233.53
  A 0.70 0.70 0.0 0 1 382.56 232.83
  L 382.62 203.03
  Z
  M 386.26 206.20
  L 386.18 229.62
  A 0.74 0.74 0.0 0 0 386.92 230.36
  L 387.68 230.36
  A 7.10 5.00 -89.8 0 0 392.70 223.28
  L 392.74 212.58
  A 7.10 5.00 -89.8 0 0 387.76 205.46
  L 387.00 205.46
  A 0.74 0.74 0.0 0 0 386.26 206.20
  Z"
/>
<ellipse fill="#f1f3f5" cx="0.00" cy="0.00" transform="translate(417.80,205.42) rotate(93.2)" rx="2.80" ry="1.90"/>
<path fill="#f1f3f5" d="
  M 452.86 204.86
  L 452.95 203.11
  A 0.66 0.66 0.0 0 1 453.61 202.49
  L 468.15 202.47
  A 0.66 0.66 0.0 0 1 468.81 203.11
  L 468.87 204.95
  A 0.66 0.66 0.0 0 1 468.21 205.63
  L 463.17 205.61
  A 0.66 0.66 0.0 0 0 462.51 206.27
  L 462.53 232.84
  A 0.66 0.66 0.0 0 1 461.87 233.50
  L 459.66 233.51
  A 0.66 0.66 0.0 0 1 459.00 232.85
  L 459.00 206.30
  A 0.66 0.66 0.0 0 0 458.35 205.64
  L 453.50 205.55
  A 0.66 0.66 0.0 0 1 452.86 204.86
  Z"
/>
<path fill="#f1f3f5" d="
  M 526.99 220.80
  A 0.46 0.46 0.0 0 0 526.50 221.26
  L 526.48 232.74
  A 0.74 0.74 0.0 0 1 525.76 233.47
  L 523.70 233.52
  Q 522.86 233.54 522.86 232.70
  L 522.88 203.24
  Q 522.88 202.65 523.47 202.58
  C 531.39 201.73 536.56 202.92 536.24 212.24
  Q 535.92 221.42 526.99 220.80
  Z
  M 526.48 205.92
  L 526.44 217.14
  A 0.57 0.57 0.0 0 0 527.01 217.71
  L 528.10 217.72
  A 4.48 4.12 -89.8 0 0 532.23 213.25
  L 532.25 209.85
  A 4.48 4.12 -89.8 0 0 528.14 205.36
  L 527.05 205.35
  A 0.57 0.57 0.0 0 0 526.48 205.92
  Z"
/>
<path fill="#f1f3f5" d="
  M 568.70 210.51
  L 568.71 204.03
  Q 568.71 203.27 569.47 203.27
  L 571.53 203.26
  Q 572.30 203.26 572.29 204.03
  L 572.15 210.57
  Q 572.14 211.25 572.82 211.25
  L 576.26 211.23
  A 0.53 0.52 -90.0 0 1 576.78 211.76
  L 576.75 213.70
  A 0.69 0.68 0.8 0 1 576.05 214.37
  L 572.79 214.33
  Q 572.16 214.32 572.17 214.95
  L 572.27 229.80
  Q 572.28 231.36 573.83 231.26
  Q 574.94 231.18 575.80 230.60
  A 0.49 0.49 0.0 0 1 576.57 230.97
  L 576.65 232.26
  A 1.06 1.06 0.0 0 1 575.99 233.31
  Q 573.28 234.39 570.52 233.47
  Q 570.03 233.31 569.81 232.85
  C 567.76 228.55 568.66 220.34 568.70 215.30
  A 0.92 0.92 0.0 0 0 567.82 214.38
  L 566.05 214.30
  A 0.47 0.47 0.0 0 1 565.60 213.79
  L 565.73 211.74
  Q 565.77 211.26 566.26 211.25
  L 567.99 211.23
  Q 568.70 211.22 568.70 210.51
  Z"
/>
<path fill="#f1f3f5" d="
  M 341.84 230.34
  C 338.77 235.21 330.20 235.59 329.23 228.75
  C 328.59 224.27 327.80 215.80 332.12 212.46
  C 335.22 210.06 340.84 210.46 342.04 215.04
  Q 344.02 222.61 342.05 229.86
  A 1.81 1.63 71.7 0 1 341.84 230.34
  Z
  M 335.7042 231.4786
  A 8.93 3.52 91.0 0 0 339.3795 222.6114
  A 8.93 3.52 91.0 0 0 336.0158 213.6214
  A 8.93 3.52 91.0 0 0 332.3405 222.4886
  A 8.93 3.52 91.0 0 0 335.7042 231.4786
  Z"
/>
<path fill="#f1f3f5" d="
  M 367.42 215.77
  L 367.36 232.80
  A 0.68 0.67 89.6 0 1 366.70 233.48
  L 364.54 233.51
  Q 363.81 233.53 363.81 232.79
  L 363.79 213.69
  Q 363.79 212.97 364.40 212.59
  Q 367.83 210.50 371.91 211.31
  A 1.50 1.50 0.0 0 1 373.09 213.05
  L 373.01 213.54
  Q 372.81 214.64 371.71 214.47
  Q 369.76 214.18 367.97 214.94
  A 0.90 0.90 0.0 0 0 367.42 215.77
  Z"
/>
<path fill="#f1f3f5" d="
  M 408.59 219.52
  L 408.43 215.89
  A 1.43 1.43 0.0 0 0 407.17 214.54
  Q 403.98 214.17 400.80 214.95
  Q 399.37 215.31 399.36 213.83
  L 399.36 213.45
  Q 399.34 211.69 401.09 211.46
  C 405.64 210.85 412.07 209.49 412.12 216.26
  Q 412.18 223.49 411.90 231.61
  Q 411.86 232.72 410.82 233.08
  C 408.03 234.04 401.48 235.13 400.02 231.23
  C 398.02 225.85 399.68 218.40 407.59 220.34
  Q 408.64 220.60 408.59 219.52
  Z
  M 408.6565 224.8965
  A 2.22 2.22 0.0 0 0 406.4993 222.6154
  L 405.5197 222.5880
  A 2.22 2.22 0.0 0 0 403.2386 224.7451
  L 403.1235 228.8635
  A 2.22 2.22 0.0 0 0 405.2807 231.1446
  L 406.2603 231.1720
  A 2.22 2.22 0.0 0 0 408.5414 229.0149
  L 408.6565 224.8965
  Z"
/>
<path fill="#f1f3f5" d="
  M 476.28 219.52
  L 476.17 216.09
  Q 476.13 214.77 474.83 214.57
  Q 471.59 214.08 468.42 215.01
  Q 467.07 215.41 467.03 214.00
  L 467.01 213.47
  A 1.95 1.95 0.0 0 1 468.68 211.48
  C 473.04 210.86 479.51 209.48 479.68 216.00
  Q 479.90 224.13 479.61 231.76
  A 1.45 1.45 0.0 0 1 478.52 233.11
  C 475.62 233.87 470.94 234.77 468.71 232.83
  C 466.23 230.66 466.83 224.81 468.08 222.33
  Q 469.78 218.95 475.21 220.37
  Q 476.31 220.66 476.28 219.52
  Z
  M 476.3787 225.0202
  A 2.25 2.25 0.0 0 0 474.2454 222.6592
  L 473.3066 222.6117
  A 2.25 2.25 0.0 0 0 470.9457 224.7450
  L 470.7413 228.7798
  A 2.25 2.25 0.0 0 0 472.8746 231.1408
  L 473.8134 231.1883
  A 2.25 2.25 0.0 0 0 476.1743 229.0550
  L 476.3787 225.0202
  Z"
/>
<path fill="#f1f3f5" d="
  M 487.31 215.75
  A 2.07 2.07 0.0 0 0 487.93 218.13
  C 491.24 220.81 496.53 223.89 495.48 228.98
  C 494.36 234.34 488.51 234.85 484.35 233.48
  Q 483.00 233.03 482.99 231.60
  L 482.99 231.29
  Q 482.98 229.86 484.32 230.34
  C 487.30 231.39 493.69 231.15 491.14 226.10
  C 489.88 223.60 485.13 221.44 483.64 218.70
  Q 481.81 215.34 484.84 212.05
  A 1.66 1.63 -73.6 0 1 485.74 211.55
  Q 489.84 210.72 493.98 211.29
  A 1.98 1.98 0.0 0 1 495.69 213.08
  L 495.77 213.95
  Q 495.89 215.34 494.58 214.86
  C 492.44 214.08 488.40 213.04 487.31 215.75
  Z"
/>
<path fill="#f1f3f5" d="
  M 547.76 219.30
  L 547.68 216.26
  A 1.78 1.77 -87.2 0 0 546.12 214.53
  Q 543.00 214.15 539.97 214.98
  Q 538.41 215.42 538.50 213.80
  L 538.52 213.42
  A 2.09 2.08 -3.9 0 1 540.21 211.49
  C 544.71 210.62 551.03 209.64 551.19 216.25
  Q 551.35 223.60 550.97 231.67
  Q 550.92 232.74 549.90 233.09
  C 546.84 234.12 540.31 235.23 538.93 230.86
  C 537.28 225.63 538.95 218.36 546.39 220.37
  Q 547.79 220.75 547.76 219.30
  Z
  M 547.8497 225.0422
  A 2.30 2.30 0.0 0 0 545.6606 222.6364
  L 544.7417 222.5931
  A 2.30 2.30 0.0 0 0 542.3359 224.7822
  L 542.1503 228.7178
  A 2.30 2.30 0.0 0 0 544.3394 231.1236
  L 545.2583 231.1669
  A 2.30 2.30 0.0 0 0 547.6641 228.9778
  L 547.8497 225.0422
  Z"
/>
<path fill="#f1f3f5" d="
  M 559.20 214.87
  Q 558.61 215.10 558.61 215.73
  L 558.63 232.77
  A 0.68 0.68 0.0 0 1 557.98 233.45
  L 555.77 233.53
  Q 554.99 233.55 554.98 232.77
  L 554.97 213.50
  A 0.99 0.98 73.8 0 1 555.42 212.67
  Q 558.90 210.40 563.03 211.32
  A 1.47 1.46 7.6 0 1 564.18 212.81
  L 564.14 213.63
  Q 564.09 214.71 563.02 214.51
  Q 561.04 214.13 559.20 214.87
  Z"
/>
<path fill="#f1f3f5" d="
  M 583.42 216.25
  L 583.42 232.54
  A 0.89 0.88 88.3 0 1 582.59 233.43
  L 580.67 233.55
  Q 579.73 233.61 579.73 232.67
  L 579.81 212.84
  Q 579.81 212.33 580.29 212.17
  Q 585.25 210.44 590.42 211.45
  A 2.68 2.67 -2.7 0 1 592.48 213.32
  Q 593.04 215.23 593.06 217.74
  Q 593.11 224.93 593.19 232.44
  Q 593.20 233.45 592.19 233.47
  L 590.40 233.52
  Q 589.49 233.55 589.49 232.64
  L 589.49 216.40
  Q 589.49 214.06 587.15 214.01
  L 585.75 213.98
  Q 583.42 213.93 583.42 216.25
  Z"
/>
<path fill="#f1f3f5" d="
  M 602.12 224.62
  Q 599.74 224.81 600.55 227.05
  L 601.06 228.47
  Q 601.89 230.75 604.31 230.59
  Q 606.46 230.45 608.47 229.60
  Q 609.84 229.03 609.91 230.51
  L 609.95 231.42
  Q 610.00 232.37 609.16 232.82
  C 605.93 234.54 600.39 234.83 598.24 231.11
  C 594.94 225.42 595.75 207.58 606.78 211.45
  C 610.97 212.93 610.64 220.08 609.69 223.47
  Q 609.54 224.02 608.96 224.07
  L 602.12 224.62
  Z
  M 600.42 219.48
  A 1.86 1.86 0.0 0 0 602.41 221.77
  L 605.11 221.52
  A 1.86 1.86 0.0 0 0 606.79 219.60
  L 606.64 215.47
  A 1.86 1.86 0.0 0 0 604.10 213.81
  L 602.46 214.46
  A 1.86 1.86 0.0 0 0 601.34 215.74
  L 600.42 219.48
  Z"
/>
<path fill="#f1f3f5" d="
  M 618.00 214.72
  A 1.11 1.09 82.7 0 0 617.20 215.77
  L 617.11 232.56
  A 0.94 0.93 -0.6 0 1 616.19 233.49
  L 614.41 233.52
  Q 613.52 233.54 613.52 232.66
  L 613.54 213.29
  Q 613.54 212.89 613.88 212.67
  Q 617.63 210.30 621.96 211.52
  A 0.73 0.73 0.0 0 1 622.49 212.18
  L 622.61 214.21
  A 0.29 0.28 3.2 0 1 622.27 214.51
  Q 620.12 214.13 618.00 214.72
  Z"
/>
<path fill="#f1f3f5" d="
  M 356.23 228.78
  L 356.22 212.00
  Q 356.22 211.46 356.75 211.42
  L 359.05 211.24
  Q 359.66 211.20 359.65 211.80
  L 359.61 232.01
  A 1.19 1.18 84.0 0 1 358.68 233.17
  C 353.53 234.27 346.18 235.36 346.22 227.50
  Q 346.26 219.55 346.30 211.92
  Q 346.30 211.52 346.70 211.49
  L 349.76 211.24
  Q 350.06 211.21 350.06 211.51
  L 350.05 228.46
  Q 350.05 230.88 352.46 230.94
  L 353.97 230.97
  Q 356.23 231.03 356.23 228.78
  Z"
/>
<path fill="#f1f3f5" d="
  M 419.54 211.77
  L 419.52 232.92
  A 0.58 0.58 0.0 0 1 418.94 233.50
  L 416.56 233.52
  A 0.58 0.58 0.0 0 1 415.98 232.94
  L 415.98 212.19
  A 0.58 0.58 0.0 0 1 416.46 211.62
  L 418.86 211.20
  A 0.58 0.58 0.0 0 1 419.54 211.77
  Z"
/>
<path fill="#f1f3f5" d="
  M 437.21 227.61
  Q 437.46 229.49 437.81 227.63
  L 440.77 212.30
  Q 440.91 211.58 441.64 211.50
  L 444.01 211.23
  Q 444.65 211.16 444.51 211.78
  Q 441.57 224.31 438.29 236.94
  C 437.10 241.53 434.78 243.06 430.11 241.65
  A 1.12 1.11 12.6 0 1 429.32 240.42
  L 429.47 239.45
  Q 429.61 238.49 430.46 238.96
  C 434.14 240.98 436.45 236.16 435.63 232.88
  Q 432.98 222.32 430.52 211.96
  A 0.34 0.34 0.0 0 1 430.81 211.54
  L 433.49 211.22
  Q 433.91 211.17 434.02 211.58
  Q 436.17 219.50 437.21 227.61
  Z"
/>
</svg>
